<?xml version="1.0" encoding="UTF-8"?>
<!DOCTYPE svg PUBLIC "-//W3C//DTD SVG 1.1//EN" "http://www.w3.org/Graphics/SVG/1.1/DTD/svg11.dtd">
<svg xmlns="http://www.w3.org/2000/svg" version="1.1" width="800px" height="246px" style="shape-rendering:geometricPrecision; text-rendering:geometricPrecision; image-rendering:optimizeQuality; fill-rule:evenodd; clip-rule:evenodd" xmlns:xlink="http://www.w3.org/1999/xlink">
<g><path style="opacity:1" fill="#659a00" d="M 34.5,6.5 C 91.2256,6.01219 147.892,6.51219 204.5,8C 206.81,9.63735 208.31,11.804 209,14.5C 209.195,38.8502 209.695,63.1835 210.5,87.5C 210.379,88.8945 210.046,90.2278 209.5,91.5C 210.359,92.7742 211.026,92.6075 211.5,91C 213.706,85.3813 215.706,79.7146 217.5,74C 223.557,72.8384 229.223,73.8384 234.5,77C 235.894,77.956 236.561,79.2894 236.5,81C 227.675,106.809 218.841,132.642 210,158.5C 211.001,182.787 210.667,206.787 209,230.5C 208.31,233.196 206.81,235.363 204.5,237C 147.583,238.658 90.5826,238.992 33.5,238C 30.2716,236.437 28.1049,233.937 27,230.5C 26.3333,227.167 25.6667,223.833 25,220.5C 21.3548,219.907 18.0215,218.574 15,216.5C 14.2797,214.888 14.4464,213.388 15.5,212C 18.6883,210.684 22.0217,210.184 25.5,210.5C 25.5,203.5 25.5,196.5 25.5,189.5C 22.8127,189.664 20.146,189.497 17.5,189C 13.5,185.667 13.5,182.333 17.5,179C 20.146,178.503 22.8127,178.336 25.5,178.5C 25.5158,172.121 25.6825,165.788 26,159.5C 23.0954,157.907 19.9288,156.907 16.5,156.5C 13.8333,153.5 13.8333,150.5 16.5,147.5C 19.443,146.756 22.443,146.256 25.5,146C 26.0968,144.938 26.4302,143.772 26.5,142.5C 25.4142,137.156 25.2475,131.822 26,126.5C 22.9243,125.712 19.7577,125.212 16.5,125C 14.3517,122.925 14.0183,120.592 15.5,118C 18.5,117.667 21.5,117.333 24.5,117C 25.5742,116.261 26.2409,115.261 26.5,114C 26.3761,108.71 26.2094,103.21 26,97.5C 22.8052,96.8508 19.6386,96.0175 16.5,95C 13.8333,92 13.8333,89 16.5,86C 19.1667,85.6667 21.8333,85.3333 24.5,85C 25.3567,84.3109 26.0233,83.4776 26.5,82.5C 25.4598,77.714 25.2931,72.714 26,67.5C 22.8688,66.7939 19.7021,66.1272 16.5,65.5C 13.8333,62.5 13.8333,59.5 16.5,56.5C 19.7021,55.8728 22.8688,55.2061 26,54.5C 25.5436,49.0077 25.377,43.341 25.5,37.5C 17.8391,38.337 14.3391,35.0036 15,27.5C 15.5,25.6667 16.6667,24.5 18.5,24C 20.9005,23.8142 23.2338,23.3142 25.5,22.5C 25.1694,15.0511 28.1694,9.71778 34.5,6.5 Z M 198.5,79.5 C 198.667,97.5031 198.5,115.503 198,133.5C 195.069,140.794 192.235,148.127 189.5,155.5C 143.896,156.385 98.2298,156.719 52.5,156.5C 52.1667,156.5 51.8333,156.5 51.5,156.5C 48.1671,156.837 47.1671,158.504 48.5,161.5C 94.4952,162.5 140.495,162.833 186.5,162.5C 186.5,163.5 186.5,164.5 186.5,165.5C 184.732,168.606 183.232,171.939 182,175.5C 180.938,176.097 179.772,176.43 178.5,176.5C 135.768,175.19 92.7675,175.19 49.5,176.5C 48.2528,178.006 48.2528,179.506 49.5,181C 89.1547,182.313 128.821,182.813 168.5,182.5C 171.833,182.5 175.167,182.5 178.5,182.5C 178.538,185.807 177.872,188.974 176.5,192C 176.82,193.653 177.82,194.653 179.5,195C 175.229,195.77 173.563,198.27 174.5,202.5C 175.747,206.712 176.58,211.045 177,215.5C 178.067,217.283 179.567,217.783 181.5,217C 185.28,213.374 189.113,209.874 193,206.5C 193.825,204.299 193.325,202.466 191.5,201C 188.637,199.213 185.637,197.713 182.5,196.5C 181.475,196.103 181.308,195.437 182,194.5C 186.563,195.947 190.896,197.947 195,200.5C 195.689,199.643 196.522,198.977 197.5,198.5C 198.491,202.445 198.824,206.445 198.5,210.5C 198.666,215.179 198.499,219.845 198,224.5C 197.586,224.957 197.086,225.291 196.5,225.5C 144.167,224.167 91.8333,224.167 39.5,225.5C 38.1195,225 37.4528,224 37.5,222.5C 38.6441,219.713 39.6441,216.88 40.5,214C 38.0344,209.38 37.0344,204.38 37.5,199C 37.0727,193.361 38.0727,188.028 40.5,183C 38.0233,178.21 37.0233,173.044 37.5,167.5C 37.6667,164.167 37.8333,160.833 38,157.5C 39.3631,156.107 40.1964,154.441 40.5,152.5C 38.2176,148.516 36.8843,144.183 36.5,139.5C 36.7746,136.245 36.7746,133.078 36.5,130C 38.0599,127.273 39.3932,124.44 40.5,121.5C 38.1004,115.255 36.767,108.755 36.5,102C 36.9075,98.0693 38.2408,94.5693 40.5,91.5C 35.1855,81.39 35.1855,71.2233 40.5,61C 40.0541,59.2741 39.2208,57.7741 38,56.5C 37.7595,51.295 37.2595,46.1283 36.5,41C 37.0261,36.8398 38.3594,33.0065 40.5,29.5C 38.7679,27.0819 37.4346,24.4152 36.5,21.5C 36.7093,20.914 37.0426,20.414 37.5,20C 90.1979,20.2458 143.198,20.0791 196.5,19.5C 197.833,20.1667 198.833,21.1667 199.5,22.5C 199.078,41.0927 198.745,60.0927 198.5,79.5 Z"/></g>
<g><path style="opacity:0.944" fill="#060200" d="M 269.5,98.5 C 270.154,78.4716 269.488,58.8049 267.5,39.5C 263.154,39.6657 258.821,39.499 254.5,39C 252.981,36.3786 253.481,34.2119 256,32.5C 271.625,33.8204 287.291,33.8204 303,32.5C 305.946,33.7861 307.112,36.1194 306.5,39.5C 300.833,39.5 295.167,39.5 289.5,39.5C 289.667,59.1695 289.5,78.8362 289,98.5C 282.342,98.5428 275.842,98.5428 269.5,98.5 Z"/></g>
<g><path style="opacity:0.955" fill="#090501" d="M 406.5,91.5 C 407.66,79.6738 407.826,67.6738 407,55.5C 406.722,56.4158 406.222,57.0825 405.5,57.5C 403.782,56.776 401.948,56.1094 400,55.5C 399.506,53.8659 399.34,52.1992 399.5,50.5C 401.527,50.6621 403.527,50.4955 405.5,50C 406.056,49.6174 406.389,49.1174 406.5,48.5C 407.371,45.997 408.037,43.3303 408.5,40.5C 414.083,39.0368 419.416,37.0368 424.5,34.5C 424.5,39.8333 424.5,45.1667 424.5,50.5C 427.5,50.5 430.5,50.5 433.5,50.5C 433.5,52.5 433.5,54.5 433.5,56.5C 430.482,56.3354 427.482,56.502 424.5,57C 424.043,57.414 423.709,57.914 423.5,58.5C 424.833,68.8333 424.833,79.1667 423.5,89.5C 423.919,90.6721 424.585,91.6721 425.5,92.5C 427.735,91.2479 430.069,90.7479 432.5,91C 432.957,91.414 433.291,91.914 433.5,92.5C 432.46,95.4404 430.46,97.2737 427.5,98C 422.5,98.6667 417.5,98.6667 412.5,98C 409.274,96.9417 407.274,94.7751 406.5,91.5 Z"/></g>
<g><path style="opacity:0.959" fill="#659e00" d="M 48.5,38.5 C 94.3204,39.3261 140.154,39.3261 186,38.5C 190.427,37.5877 191.927,39.0877 190.5,43C 143.167,43.6667 95.8333,43.6667 48.5,43C 47.2721,41.5098 47.2721,40.0098 48.5,38.5 Z"/></g>
<g><path style="opacity:0.388" fill="#835807" d="M 267.5,39.5 C 269.488,58.8049 270.154,78.4716 269.5,98.5C 268.822,78.9312 268.155,59.2646 267.5,39.5 Z"/></g>
<g><path style="opacity:0.569" fill="#4d3b0a" d="M 408.5,40.5 C 408.037,43.3303 407.371,45.997 406.5,48.5C 404.743,45.1205 405.41,42.4538 408.5,40.5 Z"/></g>
<g><path style="opacity:0.939" fill="#080401" d="M 315.5,95.5 C 311.921,90.057 308.921,84.3904 306.5,78.5C 306.5,76.5 306.5,74.5 306.5,72.5C 307.117,72.6107 307.617,72.944 308,73.5C 308.579,65.2357 311.746,58.2357 317.5,52.5C 318.347,51.0337 319.68,50.2004 321.5,50C 330.882,46.5824 339.049,48.4158 346,55.5C 349.972,62.1121 351.472,68.9454 350.5,76C 342.173,76.4997 333.84,76.6664 325.5,76.5C 324.745,83.716 327.079,89.5493 332.5,94C 335.257,94.5837 337.923,94.2504 340.5,93C 342.937,89.6931 344.603,86.0264 345.5,82C 348.186,81.6707 350.186,82.6707 351.5,85C 348.89,95.5718 342.057,100.405 331,99.5C 325.254,99.9395 320.087,98.6062 315.5,95.5 Z M 329.5,53.5 C 332.452,54.3589 334.285,56.3589 335,59.5C 335.499,63.1516 335.665,66.8183 335.5,70.5C 332.167,70.5 328.833,70.5 325.5,70.5C 325.549,64.4363 326.882,58.7696 329.5,53.5 Z"/></g>
<g><path style="opacity:0.935" fill="#080400" d="M 381.5,63.5 C 382.077,64.7733 382.743,64.7733 383.5,63.5C 386.941,59.4061 389.941,55.0728 392.5,50.5C 394.604,50.2011 396.604,50.5344 398.5,51.5C 394.025,57.8085 389.359,63.9752 384.5,70C 389.698,78.5203 394.865,87.0203 400,95.5C 400.783,97.3185 400.283,98.6518 398.5,99.5C 392.19,98.8703 385.856,98.2037 379.5,97.5C 376.833,92.8333 374.167,88.1667 371.5,83.5C 367.712,88.2436 364.045,93.0769 360.5,98C 358.782,98.346 357.115,98.846 355.5,99.5C 354.081,98.9953 353.415,97.9953 353.5,96.5C 355.39,96.7035 356.89,96.0368 358,94.5C 359.944,90.8901 362.277,87.5568 365,84.5C 365.483,83.552 365.649,82.552 365.5,81.5C 366.476,80.1851 367.476,78.8518 368.5,77.5C 365.406,73.0736 362.739,68.407 360.5,63.5C 361.043,63.44 361.376,63.1067 361.5,62.5C 360.194,61.0878 359.36,59.4211 359,57.5C 358.184,56.1772 357.017,55.5106 355.5,55.5C 354.847,54.1932 354.18,52.8599 353.5,51.5C 360.476,50.3356 367.476,50.1689 374.5,51C 376.72,55.2779 379.053,59.4446 381.5,63.5 Z"/></g>
<g><path style="opacity:0.455" fill="#452406" d="M 392.5,50.5 C 389.941,55.0728 386.941,59.4061 383.5,63.5C 382.743,64.7733 382.077,64.7733 381.5,63.5C 384.503,59.6569 387.336,55.6569 390,51.5C 390.671,50.7476 391.504,50.4142 392.5,50.5 Z"/></g>
<g><path style="opacity:0.702" fill="#3a1c04" d="M 355.5,55.5 C 357.017,55.5106 358.184,56.1772 359,57.5C 359.36,59.4211 360.194,61.0878 361.5,62.5C 361.376,63.1067 361.043,63.44 360.5,63.5C 358.833,60.8333 357.167,58.1667 355.5,55.5 Z"/></g>
<g><path style="opacity:0.569" fill="#3b1d04" d="M 406.5,91.5 C 405.543,80.2175 405.21,68.8841 405.5,57.5C 406.222,57.0825 406.722,56.4158 407,55.5C 407.826,67.6738 407.66,79.6738 406.5,91.5 Z"/></g>
<g><path style="opacity:0.753" fill="#5f9700" d="M 190.5,59.5 C 191.853,61.1284 191.519,62.4617 189.5,63.5C 142.859,62.9951 96.1923,62.1617 49.5,61C 96.6432,60.399 143.643,59.899 190.5,59.5 Z"/></g>
<g><path style="opacity:0.11" fill="#74ad05" d="M 190.5,59.5 C 143.643,59.899 96.6432,60.399 49.5,61C 96.1923,62.1617 142.859,62.9951 189.5,63.5C 142.832,63.6667 96.1655,63.5 49.5,63C 47.4078,62.0475 47.0745,60.7141 48.5,59C 96.0018,58.1684 143.335,58.3351 190.5,59.5 Z"/></g>
<g><path style="opacity:0.569" fill="#452405" d="M 317.5,52.5 C 311.746,58.2357 308.579,65.2357 308,73.5C 307.617,72.944 307.117,72.6107 306.5,72.5C 306.896,66.6999 308.73,61.3666 312,56.5C 313.451,54.5359 315.284,53.2026 317.5,52.5 Z"/></g>
<g><path style="opacity:0.388" fill="#76b303" d="M 187.5,78.5 C 142.002,79.3327 96.3352,79.8327 50.5,80C 49.8288,80.9862 49.8288,82.1529 50.5,83.5C 46.8156,81.7967 46.649,79.7967 50,77.5C 95.7613,78.497 141.595,78.8304 187.5,78.5 Z"/></g>
<g><path style="opacity:0.6" fill="#639901" d="M 187.5,78.5 C 192.218,79.3189 192.552,80.9855 188.5,83.5C 142.935,83.4122 96.9348,83.4122 50.5,83.5C 49.8288,82.1529 49.8288,80.9862 50.5,80C 96.3352,79.8327 142.002,79.3327 187.5,78.5 Z"/></g>
<g><path style="opacity:0.729" fill="#371c04" d="M 306.5,78.5 C 308.921,84.3904 311.921,90.057 315.5,95.5C 312.44,94.0865 310.274,91.7532 309,88.5C 308.057,85.1555 307.223,81.8221 306.5,78.5 Z"/></g>
<g><path style="opacity:0.569" fill="#3f1f05" d="M 365.5,81.5 C 365.649,82.552 365.483,83.552 365,84.5C 362.277,87.5568 359.944,90.8901 358,94.5C 356.89,96.0368 355.39,96.7035 353.5,96.5C 357.751,91.6433 361.751,86.6433 365.5,81.5 Z"/></g>
<g><path style="opacity:0.809" fill="#639a00" d="M 49.5,97.5 C 95.6366,98.3389 141.97,98.3389 188.5,97.5C 192.336,99.6275 192.336,101.627 188.5,103.5C 142.5,102.167 96.5,102.167 50.5,103.5C 47.025,101.916 46.6917,99.9158 49.5,97.5 Z"/></g>
<g><path style="opacity:0.876" fill="#6fa802" d="M 191.5,119.5 C 190.711,119.783 190.044,120.283 189.5,121C 164.33,121.168 139.33,121.668 114.5,122.5C 92.4975,122.667 70.4975,122.5 48.5,122C 47.1667,120.667 47.1667,119.333 48.5,118C 95.8333,117.333 143.167,117.333 190.5,118C 191.056,118.383 191.389,118.883 191.5,119.5 Z"/></g>
<g><path style="opacity:1" fill="#649a00" d="M 96.5,118.5 C 127.142,118.089 157.809,118.589 188.5,120C 144.167,120.667 99.8333,120.667 55.5,120C 69.3395,119.831 83.0061,119.331 96.5,118.5 Z"/></g>
<g><path style="opacity:0.341" fill="#8cc30f" d="M 191.5,119.5 C 191.586,120.496 191.252,121.329 190.5,122C 165.169,122.5 139.836,122.667 114.5,122.5C 139.33,121.668 164.33,121.168 189.5,121C 190.044,120.283 190.711,119.783 191.5,119.5 Z"/></g>
<g><path style="opacity:0.91" fill="#69a201" d="M 48.5,137.5 C 95.8345,137.333 143.168,137.5 190.5,138C 191.833,139.333 191.833,140.667 190.5,142C 143.163,142.833 95.8298,142.667 48.5,141.5C 47.1931,140.135 47.1931,138.802 48.5,137.5 Z"/></g>
<g><path style="opacity:0.92" fill="#0e0701" d="M 622.5,140.5 C 626.182,140.335 629.848,140.501 633.5,141C 636.654,143.775 637.154,146.942 635,150.5C 632.132,152.183 628.966,153.183 625.5,153.5C 621.408,152.991 619.408,150.658 619.5,146.5C 619.467,143.898 620.467,141.898 622.5,140.5 Z"/></g>
<g><path style="opacity:0.41" fill="#6ca801" d="M 52.5,156.5 C 98.2298,156.719 143.896,156.385 189.5,155.5C 192.235,148.127 195.069,140.794 198,133.5C 198.5,115.503 198.667,97.5031 198.5,79.5C 199.323,76.023 199.823,72.3563 200,68.5C 200.667,90.1667 200.667,111.833 200,133.5C 198.071,140.385 195.738,147.052 193,153.5C 191.954,155.09 190.787,156.59 189.5,158C 143.774,157.975 98.107,157.475 52.5,156.5 Z"/></g>
<g><path style="opacity:0.937" fill="#0a0501" d="M 270.5,157.5 C 277.877,156.689 284.877,157.856 291.5,161C 294.406,164.311 296.073,168.144 296.5,172.5C 293.455,172.508 290.455,172.841 287.5,173.5C 287.037,164.547 282.37,161.047 273.5,163C 270.735,165.966 271.068,168.633 274.5,171C 279.833,173.667 285.167,176.333 290.5,179C 297.283,183.334 299.783,189.501 298,197.5C 296.421,203.41 292.588,206.91 286.5,208C 278.778,208.812 271.111,208.478 263.5,207C 257.325,203.656 254.992,198.656 256.5,192C 259.168,191.433 261.834,190.933 264.5,190.5C 264.771,197.518 268.437,201.852 275.5,203.5C 283.308,202.247 284.308,199.081 278.5,194C 273.956,191.481 269.289,189.148 264.5,187C 255.792,180.478 254.292,172.644 260,163.5C 263.135,160.697 266.635,158.697 270.5,157.5 Z"/></g>
<g><path style="opacity:0.956" fill="#040200" d="M 332.5,191.5 C 334.476,181.219 335.143,170.552 334.5,159.5C 339.447,158.78 344.447,158.113 349.5,157.5C 350.442,157.608 351.275,157.941 352,158.5C 352.667,174.5 352.667,190.5 352,206.5C 351.261,207.574 350.261,208.241 349,208.5C 343.969,207.586 339.135,207.252 334.5,207.5C 334.663,205.143 334.497,202.81 334,200.5C 333.005,201.066 332.172,201.733 331.5,202.5C 328.021,207.001 323.354,209.001 317.5,208.5C 311.096,209.306 307.096,206.639 305.5,200.5C 306.495,188.678 306.828,176.678 306.5,164.5C 306.5,162.833 306.5,161.167 306.5,159.5C 311.186,158.76 316.02,158.093 321,157.5C 321.772,157.645 322.439,157.978 323,158.5C 322.412,171.46 322.412,184.46 323,197.5C 324.426,200.861 326.593,201.361 329.5,199C 331.202,196.765 332.202,194.265 332.5,191.5 Z"/></g>
<g><path style="opacity:0.955" fill="#080601" d="M 406.5,164.5 C 406.435,164.938 406.601,165.272 407,165.5C 408.5,164 410,162.5 411.5,161C 411.272,160.601 410.938,160.435 410.5,160.5C 415.802,157.248 421.469,156.748 427.5,159C 429.617,160.731 431.117,162.898 432,165.5C 432.667,179.5 432.667,193.5 432,207.5C 426.402,207.511 420.902,207.511 415.5,207.5C 416.645,195.242 416.812,182.909 416,170.5C 415.617,171.056 415.117,171.389 414.5,171.5C 412.776,165.618 410.276,165.284 407,170.5C 405.241,182.351 405.074,194.184 406.5,206C 405.833,206.667 405.167,207.333 404.5,208C 398.936,207.549 393.436,207.382 388,207.5C 387.667,194.833 387.333,182.167 387,169.5C 385.232,165.675 383.232,165.675 381,169.5C 379.956,171.715 379.29,174.048 379,176.5C 378.411,186.553 378.411,196.553 379,206.5C 378.311,207.357 377.478,208.023 376.5,208.5C 371.493,207.922 366.493,207.589 361.5,207.5C 360.172,191.304 360.172,175.137 361.5,159C 366.705,158.759 371.872,158.259 377,157.5C 378.28,157.613 379.113,158.28 379.5,159.5C 378.283,165.27 379.283,165.77 382.5,161C 388.191,157.372 394.191,156.705 400.5,159C 402.203,161.332 404.203,163.165 406.5,164.5 Z"/></g>
<g><path style="opacity:0.96" fill="#060401" d="M 497.5,208.5 C 498.147,195.456 497.48,182.789 495.5,170.5C 495.55,168.41 494.55,167.077 492.5,166.5C 490.473,167.693 488.973,169.36 488,171.5C 487.667,183.5 487.333,195.5 487,207.5C 481.402,207.514 475.902,207.514 470.5,207.5C 470.667,194.496 470.5,181.496 470,168.5C 469.617,167.944 469.117,167.611 468.5,167.5C 463.983,166.483 461.483,168.483 461,173.5C 460.667,184.833 460.333,196.167 460,207.5C 454.711,207.295 449.544,207.629 444.5,208.5C 443.914,208.291 443.414,207.957 443,207.5C 442.5,191.17 442.333,174.837 442.5,158.5C 448.545,158.697 454.545,158.363 460.5,157.5C 458.779,165.283 460.446,166.116 465.5,160C 473.931,155.585 480.931,157.085 486.5,164.5C 493.736,157.062 501.903,155.729 511,160.5C 512.892,164.626 514.059,168.959 514.5,173.5C 513.167,184.167 513.167,194.833 514.5,205.5C 513.833,206.833 512.833,207.833 511.5,208.5C 506.849,207.297 502.182,207.297 497.5,208.5 Z"/></g>
<g><path style="opacity:0.933" fill="#080300" d="M 536.5,157.5 C 543.555,157.27 550.555,157.77 557.5,159C 560.034,159.516 562.2,160.683 564,162.5C 565.295,175.072 565.962,187.738 566,200.5C 566.689,201.357 567.522,202.023 568.5,202.5C 569.72,201.289 570.887,201.289 572,202.5C 572.494,204.134 572.66,205.801 572.5,207.5C 565.442,208.904 558.442,208.737 551.5,207C 550.789,205.745 549.956,204.579 549,203.5C 547.363,205.81 545.196,207.31 542.5,208C 524.744,210.914 518.244,203.747 523,186.5C 524.873,184.291 527.04,182.458 529.5,181C 535.246,179.566 540.579,177.233 545.5,174C 549.627,168.052 548.127,163.885 541,161.5C 537.465,162.016 534.632,163.683 532.5,166.5C 532.943,169.587 533.276,172.587 533.5,175.5C 530.52,175.38 527.687,174.713 525,173.5C 523.599,164.402 527.432,159.068 536.5,157.5 Z M 547.5,182.5 C 547.5,187.167 547.5,191.833 547.5,196.5C 547.211,199.412 545.711,201.412 543,202.5C 536.283,194.025 537.45,186.692 546.5,180.5C 547.298,180.957 547.631,181.624 547.5,182.5 Z"/></g>
<g><path style="opacity:0.954" fill="#060200" d="M 577.5,207.5 C 578.121,199.199 578.454,190.866 578.5,182.5C 578.497,174.802 577.831,167.468 576.5,160.5C 581.709,159.508 587.042,158.508 592.5,157.5C 594.131,159.059 594.964,161.059 595,163.5C 598.892,157.611 604.058,156.111 610.5,159C 613.911,164.145 614.411,169.645 612,175.5C 607.934,176.464 603.767,176.797 599.5,176.5C 600.207,173.214 600.54,169.881 600.5,166.5C 597.112,166.874 595.278,168.874 595,172.5C 594.667,184.167 594.333,195.833 594,207.5C 588.402,207.511 582.902,207.511 577.5,207.5 Z"/></g>
<g><path style="opacity:0.961" fill="#030100" d="M 619.5,207.5 C 620.166,199.841 620.5,192.007 620.5,184C 620.498,175.804 619.831,167.97 618.5,160.5C 618.783,159.711 619.283,159.044 620,158.5C 625.386,158.737 630.72,158.737 636,158.5C 636.667,174.833 636.667,191.167 636,207.5C 630.402,207.511 624.902,207.511 619.5,207.5 Z"/></g>
<g><path style="opacity:0.935" fill="#060301" d="M 722.5,199.5 C 724.552,198.947 724.885,197.947 723.5,196.5C 724.341,194.621 724.675,192.621 724.5,190.5C 729.992,190.003 732.158,192.336 731,197.5C 729.069,203.098 725.236,206.598 719.5,208C 712.766,208.829 706.099,208.496 699.5,207C 693.856,204.526 690.189,200.359 688.5,194.5C 688.576,189.035 688.742,183.369 689,177.5C 689.309,176.234 689.809,175.067 690.5,174C 689.906,173.536 689.239,173.369 688.5,173.5C 688.932,172.29 689.599,171.29 690.5,170.5C 693.091,167.535 696.091,164.201 699.5,160.5C 716.075,153.752 726.575,159.086 731,176.5C 731.667,179.5 731.667,182.5 731,185.5C 730.586,185.957 730.086,186.291 729.5,186.5C 721.556,185.531 713.556,185.198 705.5,185.5C 705.321,190.955 706.655,195.955 709.5,200.5C 714.237,204.558 718.571,204.225 722.5,199.5 Z M 715.5,168.5 C 715.5,170.5 715.5,172.5 715.5,174.5C 715.421,175.93 715.754,177.264 716.5,178.5C 716.167,179.5 715.5,180.167 714.5,180.5C 712.167,179.167 709.833,179.167 707.5,180.5C 705.976,179.473 705.309,177.973 705.5,176C 705.706,171.287 707.039,166.954 709.5,163C 710.5,162.333 711.5,162.333 712.5,163C 713.639,164.78 714.639,166.614 715.5,168.5 Z"/></g>
<g><path style="opacity:0.944" fill="#050200" d="M 739.5,207.5 C 740.649,192.241 740.816,176.908 740,161.5C 739.617,160.944 739.117,160.611 738.5,160.5C 744.32,159.184 750.32,158.184 756.5,157.5C 756.157,164.095 757.491,164.761 760.5,159.5C 765.852,156.531 770.686,157.198 775,161.5C 775.606,166.493 775.44,171.16 774.5,175.5C 770.217,176.492 765.884,176.826 761.5,176.5C 761.866,174.095 762.533,171.762 763.5,169.5C 763.141,166.718 761.808,166.052 759.5,167.5C 758.391,169.385 757.557,171.385 757,173.5C 756.667,184.833 756.333,196.167 756,207.5C 750.428,207.543 744.928,207.543 739.5,207.5 Z"/></g>
<g><path style="opacity:0.916" fill="#080601" d="M 643.5,207.5 C 643.334,202.33 645.001,197.83 648.5,194C 648.272,193.601 647.938,193.435 647.5,193.5C 647.328,192.508 647.662,191.842 648.5,191.5C 651.393,188.245 654.226,184.245 657,179.5C 657.692,178.563 657.525,177.897 656.5,177.5C 656.5,177.167 656.5,176.833 656.5,176.5C 657.496,176.586 658.329,176.252 659,175.5C 660.123,172.751 661.623,170.251 663.5,168C 663.272,167.601 662.938,167.435 662.5,167.5C 662.539,166.244 662.039,165.244 661,164.5C 655.918,165.637 650.751,165.804 645.5,165C 644.594,163.301 644.261,161.467 644.5,159.5C 657.5,159.5 670.5,159.5 683.5,159.5C 683.84,163.131 683.006,166.464 681,169.5C 674.707,179.918 668.541,190.418 662.5,201C 663.263,201.944 664.263,202.444 665.5,202.5C 671.134,201.425 676.801,201.258 682.5,202C 683.576,203.726 683.743,205.559 683,207.5C 669.782,207.718 656.615,207.718 643.5,207.5 Z"/></g>
<g><path style="opacity:0.878" fill="#78b005" d="M 51.5,156.5 C 50.1938,157.467 49.5271,158.801 49.5,160.5C 95.1679,160.333 140.835,160.5 186.5,161C 188.774,162.355 188.774,163.855 186.5,165.5C 186.5,164.5 186.5,163.5 186.5,162.5C 140.495,162.833 94.4952,162.5 48.5,161.5C 47.1671,158.504 48.1671,156.837 51.5,156.5 Z"/></g>
<g><path style="opacity:0.388" fill="#7f5507" d="M 334.5,159.5 C 335.143,170.552 334.476,181.219 332.5,191.5C 333.145,180.735 333.812,170.068 334.5,159.5 Z"/></g>
<g><path style="opacity:0.867" fill="#401703" d="M 576.5,160.5 C 577.831,167.468 578.497,174.802 578.5,182.5C 578.454,190.866 578.121,199.199 577.5,207.5C 576.504,192.009 576.17,176.342 576.5,160.5 Z"/></g>
<g><path style="opacity:0.729" fill="#210c01" d="M 738.5,160.5 C 739.117,160.611 739.617,160.944 740,161.5C 740.816,176.908 740.649,192.241 739.5,207.5C 738.504,192.009 738.17,176.342 738.5,160.5 Z"/></g>
<g><path style="opacity:0.204" fill="#885a0f" d="M 306.5,159.5 C 306.5,161.167 306.5,162.833 306.5,164.5C 305.833,175.5 305.167,186.5 304.5,197.5C 303.853,184.456 304.52,171.789 306.5,159.5 Z"/></g>
<g><path style="opacity:0.808" fill="#371401" d="M 618.5,160.5 C 619.831,167.97 620.498,175.804 620.5,184C 620.5,192.007 620.166,199.841 619.5,207.5C 618.504,192.009 618.17,176.342 618.5,160.5 Z"/></g>
<g><path style="opacity:0.702" fill="#441301" d="M 306.5,164.5 C 306.828,176.678 306.495,188.678 305.5,200.5C 305.443,199.391 305.11,198.391 304.5,197.5C 305.167,186.5 305.833,175.5 306.5,164.5 Z"/></g>
<g><path style="opacity:0.702" fill="#4d2405" d="M 410.5,160.5 C 410.938,160.435 411.272,160.601 411.5,161C 410,162.5 408.5,164 407,165.5C 406.601,165.272 406.435,164.938 406.5,164.5C 407.167,162.5 408.5,161.167 410.5,160.5 Z"/></g>
<g><path style="opacity:0.702" fill="#3f1903" d="M 699.5,160.5 C 696.091,164.201 693.091,167.535 690.5,170.5C 692.105,165.896 695.105,162.562 699.5,160.5 Z"/></g>
<g><path style="opacity:0.702" fill="#422205" d="M 662.5,167.5 C 662.938,167.435 663.272,167.601 663.5,168C 661.623,170.251 660.123,172.751 659,175.5C 658.329,176.252 657.496,176.586 656.5,176.5C 658.265,173.291 660.265,170.291 662.5,167.5 Z"/></g>
<g><path style="opacity:0.455" fill="#4c2603" d="M 468.5,167.5 C 469.117,167.611 469.617,167.944 470,168.5C 470.5,181.496 470.667,194.496 470.5,207.5C 469.78,194.308 469.113,180.975 468.5,167.5 Z"/></g>
<g><path style="opacity:0.204" fill="#82470b" d="M 495.5,170.5 C 497.48,182.789 498.147,195.456 497.5,208.5C 496.883,208.389 496.383,208.056 496,207.5C 495.5,195.171 495.333,182.838 495.5,170.5 Z"/></g>
<g><path style="opacity:0.322" fill="#4c2105" d="M 415.5,207.5 C 414.505,195.678 414.172,183.678 414.5,171.5C 415.117,171.389 415.617,171.056 416,170.5C 416.812,182.909 416.645,195.242 415.5,207.5 Z"/></g>
<g><path style="opacity:0.773" fill="#512506" d="M 715.5,168.5 C 717.203,170.851 717.703,173.518 717,176.5C 716.722,175.584 716.222,174.918 715.5,174.5C 715.5,172.5 715.5,170.5 715.5,168.5 Z"/></g>
<g><path style="opacity:0.204" fill="#85490c" d="M 547.5,182.5 C 548.117,182.611 548.617,182.944 549,183.5C 549.667,187.5 549.667,191.5 549,195.5C 548.617,196.056 548.117,196.389 547.5,196.5C 547.5,191.833 547.5,187.167 547.5,182.5 Z"/></g>
<g><path style="opacity:0.569" fill="#4b2606" d="M 688.5,173.5 C 689.239,173.369 689.906,173.536 690.5,174C 689.809,175.067 689.309,176.234 689,177.5C 688.742,183.369 688.576,189.035 688.5,194.5C 687.835,191.197 687.168,187.863 686.5,184.5C 687.352,180.869 688.019,177.202 688.5,173.5 Z"/></g>
<g><path style="opacity:0.569" fill="#432105" d="M 656.5,177.5 C 657.525,177.897 657.692,178.563 657,179.5C 654.226,184.245 651.393,188.245 648.5,191.5C 650.664,186.5 653.331,181.833 656.5,177.5 Z"/></g>
<g><path style="opacity:0.937" fill="#c8d2c1" d="M 199.5,197.5 C 198.5,197.167 197.833,196.5 197.5,195.5C 197.709,194.078 198.209,192.745 199,191.5C 199.495,193.473 199.662,195.473 199.5,197.5 Z"/></g>
<g><path style="opacity:0.522" fill="#87b922" d="M 168.5,182.5 C 172.298,181.517 176.298,181.183 180.5,181.5C 179.833,185.167 179.167,188.833 178.5,192.5C 184.377,193.524 189.877,195.524 195,198.5C 195.377,197.058 196.21,196.058 197.5,195.5C 197.833,196.5 198.5,197.167 199.5,197.5C 199.818,202.032 199.485,206.366 198.5,210.5C 198.824,206.445 198.491,202.445 197.5,198.5C 196.522,198.977 195.689,199.643 195,200.5C 190.896,197.947 186.563,195.947 182,194.5C 181.308,195.437 181.475,196.103 182.5,196.5C 182.53,197.497 182.03,198.164 181,198.5C 177.227,197.139 175.061,198.472 174.5,202.5C 173.563,198.27 175.229,195.77 179.5,195C 177.82,194.653 176.82,193.653 176.5,192C 177.872,188.974 178.538,185.807 178.5,182.5C 175.167,182.5 171.833,182.5 168.5,182.5 Z"/></g>
<g><path style="opacity:1" fill="#689d00" d="M 182.5,196.5 C 185.637,197.713 188.637,199.213 191.5,201C 193.325,202.466 193.825,204.299 193,206.5C 189.113,209.874 185.28,213.374 181.5,217C 179.567,217.783 178.067,217.283 177,215.5C 176.58,211.045 175.747,206.712 174.5,202.5C 175.061,198.472 177.227,197.139 181,198.5C 182.03,198.164 182.53,197.497 182.5,196.5 Z"/></g>
<g><path style="opacity:0.702" fill="#3f2005" d="M 647.5,193.5 C 647.938,193.435 648.272,193.601 648.5,194C 645.001,197.83 643.334,202.33 643.5,207.5C 642.711,207.217 642.044,206.717 641.5,206C 641.962,201.054 643.962,196.888 647.5,193.5 Z"/></g>
<g><path style="opacity:0.455" fill="#674d07" d="M 723.5,196.5 C 724.885,197.947 724.552,198.947 722.5,199.5C 723.11,198.609 723.443,197.609 723.5,196.5 Z"/></g>
<g><path style="opacity:0.388" fill="#745309" d="M 334.5,207.5 C 334.028,205.469 333.028,203.802 331.5,202.5C 332.172,201.733 333.005,201.066 334,200.5C 334.497,202.81 334.663,205.143 334.5,207.5 Z"/></g>
</svg>
