<?xml version="1.0" encoding="UTF-8"?>
<!DOCTYPE svg PUBLIC "-//W3C//DTD SVG 1.1//EN" "http://www.w3.org/G raphics/SVG/1.1/DTD/svg11.dtd">
<svg xmlns="http://www.w3.org/2000/svg" version="1.1" width="300px" height="300px" style="shape-rendering:geometricPrecision; text-rendering:geometricPrecision; image-rendering:optimizeQuality; fill-rule:evenodd; clip-rule:evenodd" xmlns:xlink="http://www.w3.org/1999/xlink">
<g><path style="opacity:0.892" fill="#659800" d="M 43.5,7.5 C 111.225,7.01017 178.891,7.51017 246.5,9C 250.857,11.1853 253.69,14.6853 255,19.5C 255.333,51.1667 255.667,82.8333 256,114.5C 258.932,106.538 261.765,98.5378 264.5,90.5C 274.195,88.1761 282.195,90.8427 288.5,98.5C 277.371,129.053 266.538,159.72 256,190.5C 255.667,219.5 255.333,248.5 255,277.5C 254.023,284.474 250.19,288.974 243.5,291C 176.833,291.667 110.167,291.667 43.5,291C 36.8099,288.974 32.9765,284.474 32,277.5C 31.5017,274.183 31.335,270.85 31.5,267.5C 27.3951,267.766 23.3951,267.266 19.5,266C 16.9659,263.253 16.9659,260.587 19.5,258C 23.3951,256.734 27.3951,256.234 31.5,256.5C 31.5,248.167 31.5,239.833 31.5,231.5C 28.4816,231.665 25.4816,231.498 22.5,231C 16.8644,227.797 16.1977,223.797 20.5,219C 24.0257,217.663 27.6924,217.163 31.5,217.5C 31.5,209.167 31.5,200.833 31.5,192.5C 28.4816,192.665 25.4816,192.498 22.5,192C 16.8644,188.797 16.1977,184.797 20.5,180C 24.0257,178.663 27.6924,178.163 31.5,178.5C 31.5,170.167 31.5,161.833 31.5,153.5C 28.1501,153.665 24.8168,153.498 21.5,153C 16.1667,149.667 16.1667,146.333 21.5,143C 24.8168,142.502 28.1501,142.335 31.5,142.5C 31.5,134.167 31.5,125.833 31.5,117.5C 28.4816,117.665 25.4816,117.498 22.5,117C 16.8644,113.797 16.1977,109.797 20.5,105C 24.0257,103.663 27.6924,103.163 31.5,103.5C 31.5,96.1667 31.5,88.8333 31.5,81.5C 28.4816,81.6646 25.4816,81.498 22.5,81C 16.8644,77.7968 16.1977,73.7968 20.5,69C 24.0257,67.6632 27.6924,67.1632 31.5,67.5C 31.5,60.1667 31.5,52.8333 31.5,45.5C 23.8527,47.3241 19.186,44.4908 17.5,37C 19.3633,29.8897 24.03,27.0564 31.5,28.5C 30.1296,18.2226 34.1296,11.2226 43.5,7.5 Z M 45.5,24.5 C 110.833,24.5 176.167,24.5 241.5,24.5C 241.667,70.1679 241.5,115.835 241,161.5C 237.795,170.95 234.295,180.283 230.5,189.5C 173.836,190.333 117.17,190.833 60.5,191C 57.8333,193.333 57.8333,195.667 60.5,198C 116.167,198.333 171.833,198.667 227.5,199C 225.407,203.776 223.407,208.609 221.5,213.5C 167.836,214.333 114.17,214.833 60.5,215C 57.8333,217.333 57.8333,219.667 60.5,222C 113.17,222.167 165.836,222.667 218.5,223.5C 216.927,228.055 215.26,232.555 213.5,237C 222.711,236.348 230.711,239.182 237.5,245.5C 238.937,242.959 240.103,240.292 241,237.5C 241.5,249.829 241.667,262.162 241.5,274.5C 176.167,274.5 110.833,274.5 45.5,274.5C 45.3367,272.143 45.5034,269.81 46,267.5C 50.6667,263.5 50.6667,259.5 46,255.5C 45.1681,246.814 45.3348,238.147 46.5,229.5C 50.6523,225.4 50.4856,221.4 46,217.5C 45.1681,208.814 45.3348,200.147 46.5,191.5C 50.6523,187.4 50.4856,183.4 46,179.5C 45.1681,170.814 45.3348,162.147 46.5,153.5C 50.5,149.833 50.5,146.167 46.5,142.5C 45.3349,134.187 45.1683,125.853 46,117.5C 50.4856,113.6 50.6523,109.6 46.5,105.5C 45.3349,97.1866 45.1683,88.8533 46,80.5C 50.6667,76.5 50.6667,72.5 46,68.5C 45.3333,59.8333 45.3333,51.1667 46,42.5C 50.6667,38.5 50.6667,34.5 46,30.5C 45.5045,28.5273 45.3379,26.5273 45.5,24.5 Z"/></g>
<g><path style="opacity:0.793" fill="#659900" d="M 59.5,47.5 C 116.834,47.3333 174.168,47.5 231.5,48C 232.833,49.6667 232.833,51.3333 231.5,53C 174.167,53.6667 116.833,53.6667 59.5,53C 58.2475,51.1722 58.2475,49.3388 59.5,47.5 Z"/></g>
<g><path style="opacity:0.794" fill="#659800" d="M 59.5,71.5 C 116.834,71.3333 174.168,71.5 231.5,72C 232.833,73.6667 232.833,75.3333 231.5,77C 174.167,77.6667 116.833,77.6667 59.5,77C 58.2475,75.1722 58.2475,73.3388 59.5,71.5 Z"/></g>
<g><path style="opacity:0.794" fill="#659800" d="M 59.5,95.5 C 116.834,95.3333 174.168,95.5 231.5,96C 232.833,97.6667 232.833,99.3333 231.5,101C 174.167,101.667 116.833,101.667 59.5,101C 58.2475,99.1722 58.2475,97.3388 59.5,95.5 Z"/></g>
<g><path style="opacity:0.795" fill="#659800" d="M 59.5,119.5 C 116.834,119.333 174.168,119.5 231.5,120C 232.833,121.667 232.833,123.333 231.5,125C 174.167,125.667 116.833,125.667 59.5,125C 58.2475,123.172 58.2475,121.339 59.5,119.5 Z"/></g>
<g><path style="opacity:0.793" fill="#659900" d="M 59.5,143.5 C 116.834,143.333 174.168,143.5 231.5,144C 232.833,145.667 232.833,147.333 231.5,149C 174.167,149.667 116.833,149.667 59.5,149C 58.2475,147.172 58.2475,145.339 59.5,143.5 Z"/></g>
<g><path style="opacity:0.796" fill="#659800" d="M 59.5,167.5 C 116.834,167.333 174.168,167.5 231.5,168C 232.833,169.667 232.833,171.333 231.5,173C 174.167,173.667 116.833,173.667 59.5,173C 58.2475,171.172 58.2475,169.339 59.5,167.5 Z"/></g>
<g><path style="opacity:0.857" fill="#659800" d="M 214.5,239.5 C 219.754,239.563 224.754,240.73 229.5,243C 232.394,244.392 234.394,246.559 235.5,249.5C 229.824,256.175 223.491,262.175 216.5,267.5C 214.725,259.183 213.058,250.85 211.5,242.5C 212.34,241.265 213.34,240.265 214.5,239.5 Z"/></g>
</svg>
